<?xml version="1.0" encoding="utf-8"?>
<?xml-stylesheet type="text/xsl" href="rss1.xsl"?>
<rss version="2.0" xmlns:atom="http://www.w3.org/2005/Atom" xmlns:content="http://purl.org/rss/1.0/modules/content/" xmlns:dc="http://purl.org/dc/elements/1.1/" xmlns:media="http://search.yahoo.com/mrss/">
<channel>
 <title>Getty</title>
 <link>http://www.gettyimg.com/</link>
 <atom:link href="http://www.gettyimg.com/" rel="self" type="application/rss+xml" />

 
                <item>
                <title><![CDATA[【Music Videos】The Beatles - Now And Then [Apple Music | HEVC | 2160p | AAC 256kbits]]]></title>
                <link><![CDATA[https://sharemania.us/threads/the-beatles-now-and-then-apple-music-hevc-2160p-aac-256kbits.231673/]]></link>
                <description><![CDATA[<article>
<blockquote class="messageText SelectQuoteContainer ugc baseHtml">
<img src="https://i.ibb.co/d01Sn3p/The-Beatles-Now-And-Then-Apple-Music-2160p-AAC-WKS-mkv-thumbs-2023-11-04-18-32-36.jpg" class="bbCodeImage LbImage" alt="[​IMG]" data-url="https://i.ibb.co/d01Sn3p/The-Beatles-Now-And-Then-Apple-Music-2160p-AAC-WKS-mkv-thumbs-2023-11-04-18-32-36.jpg" style=""> <br>
<br>
<div class="ToggleTriggerAnchor bbCodeSpoilerContainer">
<button type="button" class="button bbCodeSpoilerButton ToggleTrigger Tooltip JsOnly" data-target="> .SpoilerTarget"><span>Spoiler: <span class="SpoilerTitle">MediaInfo</span></span></button>
<div class="SpoilerTarget bbCodeSpoilerText">
<div class="bbCodeBlock bbCodeCode">
<div class="type">Code:</div>
<pre>General
Unique ID                                : 49799151901990751380518656545474651347 (0x2576F7C0C73DFBA171E35E48C742A4D3)
Complete name                            : C:\Users\MaxMa\OneDrive\Bureau\appledl\Apple Music\The Beatles\Unknown Album\The.Beatles.Now.And.Then.AppleMusic.2160p.AAC-WKS.mkv
Format                                   : Matroska
Format version                           : Version 4
File size                                : 399 MiB
Duration                                 : 4 min 35 s
Overall bit rate                         : 12.1 Mb/s
Frame rate                               : 24.000 FPS
Movie name                               : The.Beatles.Now.And.Then.AppleMusic.2160p.AAC-WKS / The.Beatles.Now.And.Then.AppleMusic.2160p.AAC-WKS
Encoded date                             : 2023-11-04 17:29:00 UTC
Writing application                      : WKSmerge v300.0.0 SASUKE DUCK  (' SASUKE DUCK ') 64-bit
Writing library                          : libebml v1.4.2 + libmatroska v1.6.4
Copyright                                : ℗ 2023 Calderstone Productions Limited (a division of Universal Music Group)
Cover                                    : Yes
Attachments                              : cover.jpg
ARTIST                                   : The Beatles

Video
ID                                       : 1
Format                                   : HEVC
Format/Info                              : High Efficiency Video Coding
Format profile                           : Main 10@L5@High
Codec ID                                 : V_MPEGH/ISO/HEVC
Duration                                 : 4 min 35 s
Bit rate                                 : 11.9 Mb/s
Width                                    : 3 840 pixels
Height                                   : 2 160 pixels
Display aspect ratio                     : 16:9
Frame rate mode                          : Constant
Frame rate                               : 24.000 FPS
Color space                              : YUV
Chroma subsampling                       : 4:2:0
Bit depth                                : 10 bits
Bits/(Pixel*Frame)                       : 0.060
Stream size                              : 390 MiB (98%)
Language                                 : English
Default                                  : Yes
Forced                                   : No
Color range                              : Limited
Color primaries                          : BT.709
Transfer characteristics                 : BT.709
Matrix coefficients                      : BT.709

Audio
ID                                       : 2
Format                                   : AAC LC
Format/Info                              : Advanced Audio Codec Low Complexity
Codec ID                                 : A_AAC-2
Duration                                 : 4 min 35 s
Bit rate                                 : 265 kb/s
Channel(s)                               : 2 channels
Channel layout                           : L R
Sampling rate                            : 48.0 kHz
Frame rate                               : 46.875 FPS (1024 SPF)
Compression mode                         : Lossy
Delay relative to video                  : -41 ms
Stream size                              : 8.70 MiB (2%)
Default                                  : Yes
Forced                                   : No

Text
ID                                       : 3
Format                                   : UTF-8
Codec ID                                 : S_TEXT/UTF8
Codec ID/Info                            : UTF-8 Plain Text
Duration                                 : 4 min 20 s
Bit rate                                 : 25 b/s
Frame rate                               : 0.138 FPS
Count of elements                        : 36
Stream size                              : 842 Bytes (0%)
Language                                 : English
Default                                  : Yes
Forced                                   : No</pre>
</div></div>
</div><br>
<div class="bbCodeBlock bbCodeVfcHH HiddenContent">
<div class="attribution type">Hidden Content:</div>
<blockquote>You must reply before you can see the hidden data contained here.</blockquote>
</div>
<div class="messageTextEndMarker">&nbsp;</div>
</blockquote>
</article>]]></description>
                <author><![CDATA[SonMaxime]]></author>
                </item>

                </channel></rss>